<svg width="15" height="11" viewBox="0 0 15 11" fill="none" xmlns="http://www.w3.org/2000/svg">
<path d="M0.562505 5.05481C0.315985 5.29707 0.312014 5.69277 0.553636 5.93865L4.49109 9.94538C4.73271 10.1912 5.12843 10.1942 5.37495 9.95192C5.62147 9.70966 5.62544 9.31396 5.38382 9.06808L1.88386 5.50655L5.45477 1.99737C5.7013 1.75511 5.70527 1.3594 5.46364 1.11353C5.22202 0.867659 4.82631 0.864728 4.57979 1.10699L0.562505 5.05481ZM14.3659 6.224C14.7111 6.22655 14.9937 5.94882 14.9971 5.60365C15.0006 5.25849 14.7236 4.97661 14.3784 4.97406L14.3659 6.224ZM0.993728 6.12497L14.3659 6.224L14.3784 4.97406L1.00627 4.87503L0.993728 6.12497Z" fill="#F5F5F5"/>
</svg>
