<svg width="45" height="45" viewBox="0 0 45 45" fill="none" xmlns="http://www.w3.org/2000/svg">
<circle cx="22.5" cy="22.5" r="21.875" transform="matrix(1 8.74228e-08 8.74228e-08 -1 0 45)" stroke="#F5F5F5" stroke-width="1.25"/>
<path d="M30.4381 21.5543C30.6843 21.7962 30.6877 22.1919 30.4457 22.4381L26.5027 26.4497C26.2607 26.6959 25.865 26.6993 25.6188 26.4574C25.3727 26.2154 25.3693 25.8197 25.6112 25.5735L29.1161 22.0076L25.5503 18.5027C25.3041 18.2607 25.3007 17.865 25.5426 17.6188C25.7846 17.3727 26.1803 17.3693 26.4265 17.6112L30.4381 21.5543ZM15.9245 22.7464C15.5793 22.7493 15.2971 22.4719 15.2941 22.1268C15.2911 21.7816 15.5685 21.4994 15.9137 21.4964L15.9245 22.7464ZM30.0054 22.625L15.9245 22.7464L15.9137 21.4964L29.9946 21.375L30.0054 22.625Z" fill="#F5F5F5"/>
</svg>
